<svg xmlns="http://www.w3.org/2000/svg" width="142.536" height="18" viewBox="0 0 142.536 18">
  <defs>
    <style>
      .cls-1 {
        fill: #022873;
      }
    </style>
  </defs>
  <path id="Path_217" data-name="Path 217" class="cls-1" d="M12.888,0V-8.3a4.083,4.083,0,0,0-.24-1.524.993.993,0,0,0-1.032-.588,1.107,1.107,0,0,0-.78.276,1.894,1.894,0,0,0-.468.684,3.444,3.444,0,0,0-.228.888,7.032,7.032,0,0,0-.06.864V0H7.1V-8.376q0-.36-.036-.72a2.417,2.417,0,0,0-.156-.66,1.059,1.059,0,0,0-.372-.48,1.156,1.156,0,0,0-.684-.18,1.173,1.173,0,0,0-.8.264,1.8,1.8,0,0,0-.468.66,3.273,3.273,0,0,0-.228.876A7.365,7.365,0,0,0,4.3-7.7V0H1.32V-10.44q0-.408-.024-.828T1.224-12.1H4.176L4.2-10.728A3.548,3.548,0,0,1,5.448-11.94a3.3,3.3,0,0,1,1.68-.444,2.761,2.761,0,0,1,1.728.468,3.368,3.368,0,0,1,.96,1.212,5.455,5.455,0,0,1,1.3-1.224,3.043,3.043,0,0,1,1.7-.456,2.586,2.586,0,0,1,2.4,1.056,5.706,5.706,0,0,1,.648,2.976V0Zm8.088-5.712v1.08a5.637,5.637,0,0,0,.336,2.268,1.214,1.214,0,0,0,1.2.708,1.3,1.3,0,0,0,.768-.2,1.434,1.434,0,0,0,.456-.54,2.248,2.248,0,0,0,.216-.756A7.5,7.5,0,0,0,24-4.008h2.832a4.832,4.832,0,0,1-1.1,3.276A4.37,4.37,0,0,1,22.512.288,5.221,5.221,0,0,1,20.028-.2a3.2,3.2,0,0,1-1.344-1.344,5.351,5.351,0,0,1-.552-1.98q-.108-1.128-.108-2.4a19.639,19.639,0,0,1,.144-2.412,5.883,5.883,0,0,1,.624-2.064,3.624,3.624,0,0,1,1.4-1.44,4.911,4.911,0,0,1,2.484-.54,4.483,4.483,0,0,1,2.436.552,3.248,3.248,0,0,1,1.248,1.476,6.328,6.328,0,0,1,.468,2.124q.072,1.2.072,2.52Zm3-1.656v-.816a5.107,5.107,0,0,0-.072-.84,2.4,2.4,0,0,0-.372-1.02,1.1,1.1,0,0,0-.972-.4,1.22,1.22,0,0,0-1.044.432,2.614,2.614,0,0,0-.444,1.152q-.048.36-.072.708t-.024.78Zm13.848.96a25.784,25.784,0,0,1-.132,2.724,5.751,5.751,0,0,1-.6,2.112A3.3,3.3,0,0,1,35.712-.2a5.3,5.3,0,0,1-2.5.492A5.739,5.739,0,0,1,30.66-.18a3.2,3.2,0,0,1-1.392-1.308A5.151,5.151,0,0,1,28.68-3.48a24.688,24.688,0,0,1-.12-2.544A19.552,19.552,0,0,1,28.7-8.448a5.492,5.492,0,0,1,.636-2.028,3.573,3.573,0,0,1,1.428-1.392,5.231,5.231,0,0,1,2.52-.516,5.857,5.857,0,0,1,2.472.432,3.013,3.013,0,0,1,1.368,1.224,4.8,4.8,0,0,1,.576,1.9A22.537,22.537,0,0,1,37.824-6.408ZM34.8-7.248q0-.576-.024-1.152a3.977,3.977,0,0,0-.168-1.032,1.548,1.548,0,0,0-.468-.732,1.345,1.345,0,0,0-.9-.276,1.342,1.342,0,0,0-.972.336,1.947,1.947,0,0,0-.5.828,4.05,4.05,0,0,0-.18,1.056q-.024.564-.024,1.02v2.4q0,.456.012,1.008a3.448,3.448,0,0,0,.168,1.02,1.927,1.927,0,0,0,.492.792,1.364,1.364,0,0,0,.984.324,1.311,1.311,0,0,0,.924-.3,1.715,1.715,0,0,0,.468-.744,3.683,3.683,0,0,0,.168-.972q.024-.528.024-.984ZM52.176,0h-3.36L46.9-9.408,44.736,0h-3.36l-2.76-12.1h3.216l1.392,9.384,2.16-9.384h3.264L50.64-2.712,52.176-12.1h2.808Zm16.8,0h-3.36L63.7-9.408,61.536,0h-3.36l-2.76-12.1h3.216l1.392,9.384,2.16-9.384h3.264L67.44-2.712,68.976-12.1h2.808Zm9.456,0-.048-1.368A3.334,3.334,0,0,1,75.36.24a3.068,3.068,0,0,1-1.4-.288,2.474,2.474,0,0,1-.912-.78,3.277,3.277,0,0,1-.5-1.152,6.089,6.089,0,0,1-.156-1.4A4.832,4.832,0,0,1,72.852-5.7a3.066,3.066,0,0,1,1.26-1.272,5.014,5.014,0,0,1,1.86-.528,22.578,22.578,0,0,1,2.268-.108v-.624q0-.432-.024-.84a2.53,2.53,0,0,0-.144-.732,1.2,1.2,0,0,0-.372-.528,1.1,1.1,0,0,0-.708-.2,1.17,1.17,0,0,0-1.068.468,2.069,2.069,0,0,0-.3,1.14v.192H72.7v-.216a3.419,3.419,0,0,1,.372-1.692,2.838,2.838,0,0,1,1-1.044,4.239,4.239,0,0,1,1.416-.54,8.554,8.554,0,0,1,1.656-.156,6.312,6.312,0,0,1,1.884.24,2.777,2.777,0,0,1,1.224.744,2.942,2.942,0,0,1,.672,1.284,7.423,7.423,0,0,1,.2,1.86v4.224q0,1.008.036,2.016T81.312,0ZM78.24-5.832h-.528a2.644,2.644,0,0,0-1.776.5A2.2,2.2,0,0,0,75.36-3.6a4.746,4.746,0,0,0,.048.672,1.763,1.763,0,0,0,.192.6,1.367,1.367,0,0,0,.384.444,1.056,1.056,0,0,0,.648.18,1.19,1.19,0,0,0,.84-.288,1.917,1.917,0,0,0,.48-.708,3.623,3.623,0,0,0,.228-.9,7.032,7.032,0,0,0,.06-.864ZM89.712-9.648a2.388,2.388,0,0,0-.252-.036q-.132-.012-.252-.012a2.309,2.309,0,0,0-2.016.78,3.664,3.664,0,0,0-.552,2.148V0H83.664V-9.912q0-.048-.012-.384T83.64-11q0-.372-.012-.708t-.012-.384h2.856l.024,1.56a2.992,2.992,0,0,1,1.248-1.392,3.943,3.943,0,0,1,1.824-.384h.144Zm3.7,3.936v1.08a5.637,5.637,0,0,0,.336,2.268,1.214,1.214,0,0,0,1.2.708,1.3,1.3,0,0,0,.768-.2,1.434,1.434,0,0,0,.456-.54,2.248,2.248,0,0,0,.216-.756,7.5,7.5,0,0,0,.048-.852h2.832a4.832,4.832,0,0,1-1.1,3.276A4.37,4.37,0,0,1,94.944.288,5.221,5.221,0,0,1,92.46-.2a3.2,3.2,0,0,1-1.344-1.344,5.351,5.351,0,0,1-.552-1.98q-.108-1.128-.108-2.4A19.639,19.639,0,0,1,90.6-8.34a5.883,5.883,0,0,1,.624-2.064,3.623,3.623,0,0,1,1.4-1.44,4.911,4.911,0,0,1,2.484-.54,4.483,4.483,0,0,1,2.436.552A3.248,3.248,0,0,1,98.8-10.356a6.328,6.328,0,0,1,.468,2.124q.072,1.2.072,2.52Zm3-1.656v-.816a5.106,5.106,0,0,0-.072-.84,2.4,2.4,0,0,0-.372-1.02,1.1,1.1,0,0,0-.972-.4,1.22,1.22,0,0,0-1.044.432A2.614,2.614,0,0,0,93.5-8.856q-.048.36-.072.708t-.024.78Zm6.7-2.784v1.488q0,.96.012,1.488t.036,1.332a9.813,9.813,0,0,0,.1,1.236q.072.432.192,1.032a3.013,3.013,0,0,0,.312.924q.192.324.468.708a1.757,1.757,0,0,0,.636.564,4.061,4.061,0,0,0,.852.3,4.611,4.611,0,0,0,1.092.12,4.612,4.612,0,0,0,1.092-.12,4.061,4.061,0,0,0,.852-.3,1.757,1.757,0,0,0,.636-.564q.276-.384.468-.708a3.013,3.013,0,0,0,.312-.924q.12-.6.192-1.032a9.815,9.815,0,0,0,.1-1.236q.024-.8.036-1.332t.012-1.488q0-.96-.012-1.488t-.036-1.332a9.814,9.814,0,0,0-.1-1.236q-.072-.432-.192-1.032a3.013,3.013,0,0,0-.312-.924q-.192-.324-.468-.708a1.757,1.757,0,0,0-.636-.564,4.061,4.061,0,0,0-.852-.3,4.612,4.612,0,0,0-1.092-.12,4.611,4.611,0,0,0-1.092.12,4.061,4.061,0,0,0-.852.3,1.757,1.757,0,0,0-.636.564q-.276.384-.468.708a3.013,3.013,0,0,0-.312.924q-.12.6-.192,1.032a9.813,9.813,0,0,0-.1,1.236Q103.128-10.68,103.1-10.152Zm-1.536,3.24V-8.664q0-1.128.012-1.752t.072-1.62a8.746,8.746,0,0,1,.2-1.56q.144-.564.384-1.308a3.129,3.129,0,0,1,.624-1.164,6.81,6.81,0,0,1,.924-.828,3.444,3.444,0,0,1,1.3-.588,7.436,7.436,0,0,1,1.716-.18,7.436,7.436,0,0,1,1.716.18,3.444,3.444,0,0,1,1.3.588,6.81,6.81,0,0,1,.924.828,3.129,3.129,0,0,1,.624,1.164q.24.744.384,1.308a8.746,8.746,0,0,1,.2,1.56q.06,1,.072,1.62t.012,1.752q0,1.128-.012,1.752t-.072,1.62a8.746,8.746,0,0,1-.2,1.56q-.144.564-.384,1.308a3.129,3.129,0,0,1-.624,1.164,6.81,6.81,0,0,1-.924.828,3.444,3.444,0,0,1-1.3.588,7.436,7.436,0,0,1-1.716.18,7.435,7.435,0,0,1-1.716-.18,3.444,3.444,0,0,1-1.3-.588,6.81,6.81,0,0,1-.924-.828,3.129,3.129,0,0,1-.624-1.164q-.24-.744-.384-1.308a8.746,8.746,0,0,1-.2-1.56Q101.592-6.288,101.568-6.912ZM116.712,0h-1.536V-17.328h2.616L122.9-1.68h.048l5.04-15.648h2.448V0H128.9V-15.84h-.048L123.768,0h-1.776L116.76-15.84h-.048Zm18.7,0h-1.536V-17.328h1.536v7.776h6.816v-7.776h1.536V0h-1.536V-8.256h-6.816Z" transform="translate(-1.224 17.664)"/>
</svg>
