<svg id="Group_134" data-name="Group 134" xmlns="http://www.w3.org/2000/svg" width="798.681" height="647.009" viewBox="0 0 798.681 647.009">
  <path id="Path_200" data-name="Path 200" d="M126.832,0,74.02,103.009H84.681v84H30.953L0,247.381,383.53,444.017,510.363,196.636Z" fill="#f2f2f2"/>
  <rect id="Rectangle_21" data-name="Rectangle 21" width="588" height="295" transform="translate(115.681 67.009)" fill="#3f3d56"/>
  <rect id="Rectangle_22" data-name="Rectangle 22" width="434" height="1" transform="translate(198.181 173.009)" fill="#6c63ff" opacity="0.3"/>
  <rect id="Rectangle_23" data-name="Rectangle 23" width="434" height="1" transform="translate(198.681 198.009)" fill="#6c63ff" opacity="0.3"/>
  <rect id="Rectangle_24" data-name="Rectangle 24" width="434" height="1" transform="translate(198.681 248.009)" fill="#6c63ff" opacity="0.3"/>
  <rect id="Rectangle_25" data-name="Rectangle 25" width="434" height="1" transform="translate(198.681 270.009)" fill="#6c63ff" opacity="0.3"/>
  <rect id="Rectangle_26" data-name="Rectangle 26" width="434" height="1" transform="translate(198.681 223.009)" fill="#6c63ff" opacity="0.3"/>
  <ellipse id="Ellipse_1" data-name="Ellipse 1" cx="186" cy="17" rx="186" ry="17" transform="translate(380.681 613.009)" fill="#3f3d56"/>
  <path id="Path_201" data-name="Path 201" d="M210.722,270.733l-1.38-1.448,64.6-61.573,56.946,40.962,46.051-51.056,20.193,17.164,54.929-32.958,61.014,41.009,95.761-54.469.988,1.738-96.837,55.082L452,184.193l-55.071,33.042L377.124,200.4l-45.949,50.944L274.121,210.3Z" fill="#6c63ff"/>
  <path id="Path_202" data-name="Path 202" d="M597.416,722.342c4.7,17.374,20.8,28.134,20.8,28.134s8.478-17.409,3.778-34.782-20.8-28.134-20.8-28.134S592.716,704.968,597.416,722.342Z" transform="translate(-200.659 -126.496)" fill="#3f3d56"/>
  <path id="Path_203" data-name="Path 203" d="M604.322,718.608c12.9,12.554,14.472,31.854,14.472,31.854s-19.335-1.056-32.231-13.61S572.091,705,572.091,705,591.426,706.054,604.322,718.608Z" transform="translate(-200.659 -126.496)" fill="#6c63ff"/>
  <circle id="Ellipse_2" data-name="Ellipse 2" cx="33.5" cy="33.5" r="33.5" transform="translate(731.681 20.009)" fill="#6c63ff" opacity="0.4"/>
  <circle id="Ellipse_3" data-name="Ellipse 3" cx="23.5" cy="23.5" r="23.5" transform="translate(679.681 46.009)" fill="#6c63ff" opacity="0.4"/>
  <circle id="Ellipse_4" data-name="Ellipse 4" cx="12.5" cy="12.5" r="12.5" transform="translate(661.681 488.009)" fill="#6c63ff" opacity="0.4"/>
  <circle id="Ellipse_5" data-name="Ellipse 5" cx="9.5" cy="9.5" r="9.5" transform="translate(451.681 556.009)" fill="#6c63ff" opacity="0.4"/>
  <circle id="Ellipse_6" data-name="Ellipse 6" cx="12.5" cy="12.5" r="12.5" transform="translate(416.681 427.009)" fill="#6c63ff" opacity="0.4"/>
  <circle id="Ellipse_7" data-name="Ellipse 7" cx="13" cy="13" r="13" transform="translate(595.181 160.509)" fill="#6c63ff"/>
  <path id="Path_204" data-name="Path 204" d="M724.373,535.47l-11.021,1.224s-4.9,22.041,0,51.429S724.373,646.9,724.373,646.9s4.9,95.511,7.347,96.736,24.49,8.571,25.715,1.224,1.224-175.1,1.224-175.1L775.8,650.573s2.449,101.634,7.347,101.634,20.817-1.224,20.817-9.8,3.674-121.226,3.674-121.226-1.224-83.266-6.122-85.715S724.373,535.47,724.373,535.47Z" transform="translate(-200.659 -126.496)" fill="#2f2e41"/>
  <path id="Path_205" data-name="Path 205" d="M734.169,739.962s-11.021-1.224-13.47,0-6.122,9.8,0,14.694S742.741,766.9,747.639,766.9a25.332,25.332,0,0,0,9.8-2.449l-2.449-20.816Z" transform="translate(-200.659 -126.496)" fill="#2f2e41"/>
  <path id="Path_206" data-name="Path 206" d="M783.149,746.084l1.224,17.143s15.919,2.449,17.143,0,13.469-8.572,14.694-9.8,2.449-14.694-4.9-15.919-9.8,2.449-9.8,2.449Z" transform="translate(-200.659 -126.496)" fill="#2f2e41"/>
  <path id="Path_207" data-name="Path 207" d="M680.291,432.612S650.9,460.776,654.577,475.47s33.062,57.551,33.062,57.551,28.164,14.694,31.837,0S699.883,522,699.883,522l-18.367-44.082,20.817-29.388Z" transform="translate(-200.659 -126.496)" fill="#ffb8b8"/>
  <path id="Path_208" data-name="Path 208" d="M811.6,389.765s26.771-17.216,26.152-29.043S821,311.6,821,311.6s-12.625-26.249-17.645-15.522,6.6,22.147,6.6,22.147l7.5,36.582-20.376,19.439Z" transform="translate(-200.659 -126.496)" fill="#ffb8b8"/>
  <circle id="Ellipse_8" data-name="Ellipse 8" cx="22.041" cy="22.041" r="22.041" transform="translate(522.489 194.687)" fill="#ffb8b8"/>
  <path id="Path_209" data-name="Path 209" d="M734.169,356.693l3.674,23.266,26.939-4.9s-1.224-23.266-1.224-25.715S734.169,356.693,734.169,356.693Z" transform="translate(-200.659 -126.496)" fill="#ffb8b8"/>
  <path id="Path_210" data-name="Path 210" d="M732.945,379.958s30.613-7.347,34.286-4.9,22.041,4.9,22.041,4.9L810.088,411.8,803.966,452.2s-1.224,64.9,1.224,75.919,15.919,12.245-12.245,14.694-33.062-1.224-52.654,3.674-35.511-2.449-30.613-7.347,13.47-83.266,3.674-90.613-13.469-45.307-13.469-45.307S732.945,386.081,732.945,379.958Z" transform="translate(-200.659 -126.496)" fill="#d0cde1"/>
  <path id="Path_211" data-name="Path 211" d="M785.6,383.632l3.674-3.673,7.347-7.347s23.878,10.408,22.653,14.082-9.184,25.1-9.184,25.1l-11.021,3.673Z" transform="translate(-200.659 -126.496)" fill="#d0cde1"/>
  <path id="Path_212" data-name="Path 212" d="M714.577,405.673l-14.694-2.449s-11.021,12.245-14.694,17.143-11.021,17.143-11.021,17.143l25.715,18.368,19.592-20.817Z" transform="translate(-200.659 -126.496)" fill="#d0cde1"/>
  <path id="Path_213" data-name="Path 213" d="M752.882,316.52l-.226-1.766a13.881,13.881,0,0,0-4.411.693,7.247,7.247,0,0,1,.272-3.173,14.108,14.108,0,0,0-4.083,1.775l-.89-3.222L731.3,316.861c-4.394,2.166-9.027,4.545-11.539,8.751-2.8,4.689-2.313,10.715-.4,15.83s5.1,9.641,7.645,14.471a36.153,36.153,0,0,0,3.474,5.913c4.621,5.76,13.615,6.924,20.129,3.447a11.648,11.648,0,0,0,5.578-5.74,37.308,37.308,0,0,0,1.114-4.753c.806-3.292,1.741-10.086,4.415-12.168,1.176-.916,3.509,2.121,4.484.993,2.505-2.9,1.98-7.371.424-10.874a79.346,79.346,0,0,0-5.223-10.188C760.564,321.23,752.855,316.309,752.882,316.52Z" transform="translate(-200.659 -126.496)" fill="#2f2e41"/>
  <rect id="Rectangle_27" data-name="Rectangle 27" width="64" height="64" transform="translate(12.681 115.009)" fill="#3f3d56"/>
</svg>
